<?xml version="1.0" encoding="utf-8"?>
<!-- Generator: Adobe Illustrator 21.0.0, SVG Export Plug-In . SVG Version: 6.00 Build 0)  -->
<svg version="1.1" id="Layer_2" xmlns="http://www.w3.org/2000/svg" xmlns:xlink="http://www.w3.org/1999/xlink" x="0px" y="0px"
	 viewBox="0 0 24 24" style="enable-background:new 0 0 24 24;" xml:space="preserve">
<style type="text/css">
	.st0{fill:none;stroke:#666666;stroke-miterlimit:10;}
	.st1{fill:#666666;}
</style>
<g>
	<circle class="st0" cx="12.8" cy="12" r="3.3"/>
	<circle class="st0" cx="2.5" cy="11.9" r="1.5"/>
	<circle class="st0" cx="14.5" cy="5.4" r="1"/>
	<circle class="st1" cx="21.5" cy="6.3" r="0.9"/>
	<circle class="st1" cx="8.5" cy="17.2" r="0.9"/>
	<circle class="st1" cx="18" cy="21" r="0.9"/>
	<path class="st0" d="M12.8,1.6c-5.2,0-9.4,3.8-10.2,8.7C3.4,10.4,4,11.1,4,11.9c0,0.8-0.6,1.5-1.5,1.5c0.7,5.1,5,9,10.3,9
		c5.7,0,10.4-4.6,10.4-10.4S18.6,1.6,12.8,1.6z"/>
	<path class="st0" d="M15.4,5.8c-0.1,0.4-0.5,0.6-0.9,0.6c-0.5,0-1-0.4-1-1c0,0,0-0.1,0-0.1c-0.2,0-0.5,0-0.7,0
		c-3.7,0-6.7,3-6.7,6.7s3,6.7,6.7,6.7s6.7-3,6.7-6.7C19.6,9.2,17.9,6.8,15.4,5.8z"/>
</g>
</svg>
