<?xml version="1.0" standalone="no"?>
<!DOCTYPE svg PUBLIC "-//W3C//DTD SVG 20010904//EN"
 "http://www.w3.org/TR/2001/REC-SVG-20010904/DTD/svg10.dtd">
<svg version="1.0" xmlns="http://www.w3.org/2000/svg"
 width="700.000000pt" height="700.000000pt" viewBox="0 0 700.000000 700.000000"
 preserveAspectRatio="xMidYMid meet">
<metadata>
Created by potrace 1.11, written by Peter Selinger 2001-2013
</metadata>
<g transform="translate(0.000000,700.000000) scale(0.100000,-0.100000)"
fill="#000000" stroke="none">
<path d="M3538 6675 c-2 -1 -41 -6 -88 -9 -230 -19 -482 -72 -724 -151 -199
-65 -487 -201 -669 -317 -100 -63 -320 -227 -402 -300 -107 -95 -286 -281
-370 -386 -76 -95 -245 -333 -245 -346 0 -3 -11 -22 -25 -42 -88 -129 -247
-497 -311 -716 -40 -137 -37 -125 -59 -227 -8 -41 -17 -76 -18 -76 -1 -1 -24
-8 -52 -15 -181 -47 -347 -209 -401 -389 -20 -70 -24 -100 -24 -171 0 -164 51
-289 165 -405 74 -75 145 -120 238 -149 31 -10 56 -21 55 -24 -7 -27 82 -390
112 -457 5 -11 12 -31 15 -45 12 -44 85 -221 140 -338 239 -504 654 -975 1133
-1285 159 -103 403 -227 582 -295 174 -67 431 -139 565 -158 17 -3 41 -7 55
-10 110 -25 342 -41 555 -38 233 4 261 5 350 18 149 21 162 23 250 41 213 43
459 121 650 206 110 49 111 49 157 36 130 -40 262 22 319 147 10 23 19 53 19
67 0 15 6 29 13 32 14 5 216 157 260 196 300 260 546 556 714 856 33 59 152
300 168 340 52 131 113 310 136 400 11 44 25 100 32 125 6 25 12 47 12 50 4
21 18 99 21 115 3 11 7 45 10 75 3 30 7 57 9 60 3 5 7 44 20 195 5 60 6 398 1
440 -2 17 -7 61 -10 98 -17 187 -62 416 -122 617 -53 176 -109 315 -204 507
-40 81 -53 118 -49 135 13 43 9 138 -6 174 -35 85 -135 164 -207 164 -17 0
-36 9 -47 23 -10 12 -52 63 -93 112 -395 477 -971 845 -1578 1009 -106 28
-254 61 -315 70 -22 3 -49 7 -60 10 -11 2 -51 7 -90 11 -38 4 -79 10 -90 12
-22 5 -492 13 -497 8z m459 -299 c379 -39 703 -129 1017 -283 110 -54 296
-160 306 -173 3 -4 16 -13 30 -20 64 -34 267 -196 375 -299 91 -88 211 -217
259 -280 34 -45 41 -61 35 -81 -42 -146 60 -310 208 -335 l42 -7 55 -111 c125
-256 210 -522 255 -798 31 -188 35 -246 36 -474 0 -215 -5 -307 -25 -430 -6
-38 -13 -83 -16 -100 -11 -74 -39 -189 -71 -299 -173 -599 -543 -1127 -1057
-1510 -74 -55 -91 -64 -107 -55 -48 25 -162 15 -219 -19 -66 -41 -110 -100
-125 -170 -6 -30 -15 -37 -73 -63 -103 -46 -178 -75 -294 -113 -140 -46 -247
-73 -358 -92 -19 -3 -37 -7 -40 -9 -3 -2 -33 -6 -65 -10 -33 -3 -69 -8 -81
-10 -117 -25 -516 -25 -709 0 -754 96 -1424 470 -1891 1056 -195 244 -341 503
-452 799 -42 112 -104 320 -116 388 -2 9 -6 34 -10 55 -6 31 -4 38 11 43 10 2
45 18 78 34 139 68 246 196 291 345 24 81 24 79 25 171 2 226 -133 449 -333
550 -26 13 -48 29 -48 35 0 6 12 56 26 111 242 956 975 1737 1909 2032 134 42
331 88 440 101 28 4 61 8 75 11 14 2 63 6 110 10 47 4 86 8 88 9 4 3 374 -4
419 -9z m-3194 -2567 c61 -15 130 -66 164 -118 112 -172 21 -400 -176 -442
-218 -46 -400 149 -337 363 43 149 199 237 349 197z"/>
<path d="M4081 5835 c-101 -37 -167 -95 -246 -218 -8 -12 -41 -16 -165 -21
-85 -3 -166 -8 -180 -10 -14 -3 -68 -12 -120 -20 -52 -9 -111 -20 -130 -26
-19 -6 -46 -13 -60 -16 -65 -12 -263 -87 -370 -139 -411 -201 -767 -559 -964
-968 -83 -172 -163 -423 -181 -567 -4 -30 -9 -58 -11 -61 -8 -14 -18 -172 -18
-289 0 -161 7 -234 39 -410 61 -338 256 -727 499 -995 44 -48 46 -53 46 -110
0 -153 119 -266 270 -258 36 2 76 4 90 5 14 1 50 -15 80 -34 190 -121 549
-251 760 -273 36 -4 69 -10 74 -13 15 -9 387 -11 441 -2 28 4 73 10 100 14 77
9 101 14 228 47 589 151 1090 561 1359 1114 144 296 209 594 210 953 0 156 -3
200 -23 342 -47 333 -218 709 -438 965 -186 217 -358 357 -607 494 -94 53
-100 58 -99 86 3 50 -23 153 -52 207 -54 99 -154 180 -267 213 -73 22 -188 18
-265 -10z m220 -287 c49 -28 73 -76 66 -136 -21 -189 -291 -159 -278 32 3 44
31 84 76 106 52 26 88 25 136 -2z m-486 -267 c16 -76 122 -198 209 -243 161
-83 367 -60 499 56 33 29 38 28 139 -30 242 -139 490 -376 624 -598 98 -163
165 -320 207 -491 15 -59 19 -80 36 -200 5 -33 9 -141 9 -240 0 -256 -31 -447
-107 -652 -212 -573 -676 -989 -1269 -1137 -53 -14 -119 -27 -147 -31 -27 -3
-77 -10 -109 -14 -80 -11 -324 -6 -416 8 -41 7 -89 14 -106 16 -17 3 -44 9
-58 15 -15 5 -41 12 -59 16 -100 17 -344 120 -463 196 -53 33 -63 44 -69 76
-21 121 -128 213 -250 216 -47 1 -53 4 -98 53 -139 149 -272 369 -348 576 -32
87 -77 253 -84 313 -3 21 -10 66 -16 99 -14 78 -14 341 1 430 6 39 14 88 17
110 3 22 15 81 28 130 20 79 31 111 64 200 23 60 92 199 137 276 106 179 282
377 441 496 43 32 80 60 83 63 15 16 186 113 255 145 237 110 476 165 752 174
l91 2 7 -30z"/>
<path d="M3580 4598 c-169 -31 -288 -74 -409 -145 -99 -59 -119 -74 -220 -175
-94 -92 -162 -187 -216 -299 -27 -58 -35 -78 -46 -119 0 -3 -5 -12 -10 -21 -4
-9 -10 -27 -12 -40 -3 -13 -10 -42 -15 -64 -29 -106 -32 -318 -7 -441 96 -469
447 -808 920 -890 64 -11 234 -12 310 -2 289 37 565 198 745 435 71 93 154
267 186 388 24 89 27 119 28 270 1 148 -2 182 -23 260 -57 219 -152 386 -309
541 -75 73 -225 176 -317 216 -71 32 -210 73 -280 83 -71 11 -271 13 -325 3z
m344 -307 c295 -70 526 -299 601 -596 24 -93 28 -250 9 -347 -64 -337 -342
-605 -679 -655 -111 -16 -253 -5 -361 28 -412 127 -657 558 -553 974 67 267
268 487 529 577 30 10 71 21 90 24 19 3 53 9 75 13 65 12 199 3 289 -18z"/>
</g>
</svg>
